<?xml version="1.0" encoding="UTF-8" standalone="no"?>
<!DOCTYPE svg PUBLIC "-//W3C//DTD SVG 1.1//EN" "http://www.w3.org/Graphics/SVG/1.1/DTD/svg11.dtd">
<!-- 由 Microsoft Visio, SVG Export 生成 pynetim_icon.svg Page-1 -->
<svg xmlns="http://www.w3.org/2000/svg" xmlns:xlink="http://www.w3.org/1999/xlink" xmlns:ev="http://www.w3.org/2001/xml-events"
		xmlns:v="http://schemas.microsoft.com/visio/2003/SVGExtensions/" width="1.86341in" height="1.59696in"
		viewBox="0 0 134.165 114.981" xml:space="preserve" color-interpolation-filters="sRGB" class="st9">
	<v:documentProperties v:langID="2052" v:metric="true" v:viewMarkup="false">
		<v:userDefs>
			<v:ud v:nameU="msvNoAutoConnect" v:val="VT0(1):26"/>
		</v:userDefs>
	</v:documentProperties>

	<style type="text/css">
	<![CDATA[
		.st1 {stroke:#7f7f7f;stroke-linecap:round;stroke-linejoin:round;stroke-width:2}
		.st2 {stroke:#a5a5a5;stroke-linecap:round;stroke-linejoin:round;stroke-width:2}
		.st3 {fill:#ffd965;stroke:#000000;stroke-linecap:round;stroke-linejoin:round;stroke-width:2}
		.st4 {fill:#4bacc6;stroke:#000000;stroke-linecap:round;stroke-linejoin:round;stroke-width:2}
		.st5 {fill:#b7dde8;stroke:#000000;stroke-linecap:round;stroke-linejoin:round;stroke-width:2}
		.st6 {stroke:#000000;stroke-linecap:butt;stroke-width:2}
		.st7 {stroke:#000000;stroke-linecap:round;stroke-linejoin:round;stroke-width:2}
		.st8 {fill:#dbeef3;stroke:#000000;stroke-linecap:round;stroke-linejoin:round;stroke-width:2}
		.st9 {fill:none;fill-rule:evenodd;font-size:12px;overflow:visible;stroke-linecap:square;stroke-miterlimit:3}
	]]>
	</style>

	<g v:mID="0" v:index="1" v:groupContext="foregroundPage">
		<title>页-1</title>
		<v:pageProperties v:drawingScale="0.0393701" v:pageScale="0.0393701" v:drawingUnits="24" v:shadowOffsetX="8.50394"
				v:shadowOffsetY="-8.50394"/>
		<v:layer v:name="连接线" v:index="0"/>
		<g id="shape20-1" v:mID="20" v:groupContext="shape" v:layerMember="0" transform="translate(17.6467,-41.6715)">
			<title>动态连接线.20</title>
			<path d="M1.5 114.98 L12.67 135.67" class="st1"/>
		</g>
		<g id="shape18-4" v:mID="18" v:groupContext="shape" v:layerMember="0" transform="translate(89.984,-78.7076)">
			<title>动态连接线.18</title>
			<path d="M0 115.49 L23.29 128.64" class="st1"/>
		</g>
		<g id="shape14-7" v:mID="14" v:groupContext="shape" v:layerMember="0" transform="translate(87.2635,-84.4958)">
			<title>动态连接线.14</title>
			<path d="M2.06 114.98 L12.11 99.5" class="st1"/>
		</g>
		<g id="shape15-10" v:mID="15" v:groupContext="shape" v:layerMember="0" transform="translate(95.91,-110.373)">
			<title>动态连接线.15</title>
			<path d="M0 118.99 L-27.68 125.14" class="st2"/>
		</g>
		<g id="shape1-13" v:mID="1" v:groupContext="shape" transform="translate(46,-49.189)">
			<title>圆形</title>
			<v:userDefs>
				<v:ud v:nameU="visVersion" v:val="VT0(15):26"/>
			</v:userDefs>
			<path d="M0 102.58 A12.4016 12.4016 0 1 1 24.8 102.58 A12.4016 12.4016 0 0 1 0 102.58 Z" class="st3"/>
		</g>
		<g id="shape2-15" v:mID="2" v:groupContext="shape" transform="translate(79.4842,-26.1575)">
			<title>圆形.2</title>
			<v:userDefs>
				<v:ud v:nameU="visVersion" v:val="VT0(15):26"/>
			</v:userDefs>
			<path d="M0 107.36 A7.61811 7.61811 0 0 1 15.24 107.36 A7.61811 7.61811 0 1 1 0 107.36 Z" class="st4"/>
		</g>
		<g id="shape3-17" v:mID="3" v:groupContext="shape" transform="translate(24.7402,-1)">
			<title>圆形.3</title>
			<v:userDefs>
				<v:ud v:nameU="visVersion" v:val="VT0(15):26"/>
			</v:userDefs>
			<path d="M0 104.35 A10.6299 10.6299 0 0 1 21.26 104.35 A10.6299 10.6299 0 1 1 0 104.35 Z" class="st5"/>
		</g>
		<g id="shape4-19" v:mID="4" v:groupContext="shape" transform="translate(83.0275,-77.0039)">
			<title>圆形.4</title>
			<v:userDefs>
				<v:ud v:nameU="visVersion" v:val="VT0(15):26"/>
			</v:userDefs>
			<path d="M0 110.91 A4.0748 4.0748 0 1 1 8.15 110.91 A4.0748 4.0748 0 0 1 -0 110.91 Z" class="st4"/>
		</g>
		<g id="shape5-21" v:mID="5" v:groupContext="shape" v:layerMember="0" transform="translate(68.6615,-66.5868)">
			<title>动态连接线</title>
			<path d="M0 113.01 L15.07 102.78" class="st6"/>
		</g>
		<g id="shape6-24" v:mID="6" v:groupContext="shape" v:layerMember="0" transform="translate(53.6016,-50.3281)">
			<title>动态连接线.6</title>
			<path d="M-0.39 114.98 L-13.78 144.03" class="st7"/>
		</g>
		<g id="shape7-27" v:mID="7" v:groupContext="shape" v:layerMember="0" transform="translate(67.3072,-53.1052)">
			<title>动态连接线.7</title>
			<path d="M0 115.13 L14.32 129.01" class="st7"/>
		</g>
		<g id="shape8-30" v:mID="8" v:groupContext="shape" transform="translate(95.91,-98.7447)">
			<title>圆形.8</title>
			<v:userDefs>
				<v:ud v:nameU="visVersion" v:val="VT0(15):26"/>
			</v:userDefs>
			<path d="M0 107.36 A7.61811 7.61811 0 0 1 15.24 107.36 A7.61811 7.61811 0 1 1 0 107.36 Z" class="st4"/>
		</g>
		<g id="shape12-32" v:mID="12" v:groupContext="shape" transform="translate(60.1732,-95.252)">
			<title>圆形.12</title>
			<v:userDefs>
				<v:ud v:nameU="visVersion" v:val="VT0(15):26"/>
			</v:userDefs>
			<path d="M0 110.91 A4.0748 4.0748 0 0 1 8.15 110.91 A4.0748 4.0748 0 1 1 0 110.91 Z" class="st8"/>
		</g>
		<g id="shape16-34" v:mID="16" v:groupContext="shape" transform="translate(1,-38.5591)">
			<title>圆形.16</title>
			<v:userDefs>
				<v:ud v:nameU="visVersion" v:val="VT0(15):26"/>
			</v:userDefs>
			<path d="M0 104.35 A10.6299 10.6299 0 0 1 21.26 104.35 A10.6299 10.6299 0 1 1 0 104.35 Z" class="st4"/>
		</g>
		<g id="shape17-36" v:mID="17" v:groupContext="shape" transform="translate(111.905,-49.189)">
			<title>圆形.17</title>
			<v:userDefs>
				<v:ud v:nameU="visVersion" v:val="VT0(15):26"/>
			</v:userDefs>
			<path d="M0 104.35 A10.6299 10.6299 0 0 1 21.26 104.35 A10.6299 10.6299 0 1 1 0 104.35 Z" class="st5"/>
		</g>
		<g id="shape19-38" v:mID="19" v:groupContext="shape" v:layerMember="0" transform="translate(21.9048,-48.0761)">
			<title>动态连接线.19</title>
			<path d="M0 111.14 L24.51 104.64" class="st7"/>
		</g>
	</g>
</svg>
