<?xml version="1.0" encoding="UTF-8" standalone="no"?>
<!DOCTYPE svg PUBLIC "-//W3C//DTD SVG 1.1//EN" "http://www.w3.org/Graphics/SVG/1.1/DTD/svg11.dtd">
<!-- 由 Microsoft Visio, SVG Export 生成 pynetim_icon.svg Page-1 -->
<svg xmlns="http://www.w3.org/2000/svg" xmlns:xlink="http://www.w3.org/1999/xlink" xmlns:ev="http://www.w3.org/2001/xml-events"
		xmlns:v="http://schemas.microsoft.com/visio/2003/SVGExtensions/" width="8.26772in" height="11.6929in"
		viewBox="0 0 595.276 841.89" xml:space="preserve" color-interpolation-filters="sRGB" class="st9">
	<v:documentProperties v:langID="2052" v:metric="true" v:viewMarkup="false">
		<v:userDefs>
			<v:ud v:nameU="msvNoAutoConnect" v:val="VT0(1):26"/>
		</v:userDefs>
	</v:documentProperties>

	<style type="text/css">
	<![CDATA[
		.st1 {stroke:#7f7f7f;stroke-linecap:round;stroke-linejoin:round;stroke-width:2}
		.st2 {stroke:#a5a5a5;stroke-linecap:round;stroke-linejoin:round;stroke-width:2}
		.st3 {fill:#ffd965;stroke:#000000;stroke-linecap:round;stroke-linejoin:round;stroke-width:2}
		.st4 {fill:#4bacc6;stroke:#000000;stroke-linecap:round;stroke-linejoin:round;stroke-width:2}
		.st5 {fill:#b7dde8;stroke:#000000;stroke-linecap:round;stroke-linejoin:round;stroke-width:2}
		.st6 {stroke:#000000;stroke-linecap:butt;stroke-width:2}
		.st7 {stroke:#000000;stroke-linecap:round;stroke-linejoin:round;stroke-width:2}
		.st8 {fill:#dbeef3;stroke:#000000;stroke-linecap:round;stroke-linejoin:round;stroke-width:2}
		.st9 {fill:none;fill-rule:evenodd;font-size:12px;overflow:visible;stroke-linecap:square;stroke-miterlimit:3}
	]]>
	</style>

	<g v:mID="0" v:index="1" v:groupContext="foregroundPage">
		<title>页-1</title>
		<v:pageProperties v:drawingScale="0.0393701" v:pageScale="0.0393701" v:drawingUnits="24" v:shadowOffsetX="8.50394"
				v:shadowOffsetY="-8.50394"/>
		<v:layer v:name="连接线" v:index="0"/>
		<g id="shape20-1" v:mID="20" v:groupContext="shape" v:layerMember="0" transform="translate(167.237,-579.963)">
			<title>动态连接线.20</title>
			<path d="M1.5 841.89 L12.67 862.58" class="st1"/>
		</g>
		<g id="shape18-4" v:mID="18" v:groupContext="shape" v:layerMember="0" transform="translate(239.575,-616.999)">
			<title>动态连接线.18</title>
			<path d="M0 842.4 L23.29 855.55" class="st1"/>
		</g>
		<g id="shape14-7" v:mID="14" v:groupContext="shape" v:layerMember="0" transform="translate(236.854,-622.787)">
			<title>动态连接线.14</title>
			<path d="M2.06 841.89 L12.11 826.41" class="st1"/>
		</g>
		<g id="shape15-10" v:mID="15" v:groupContext="shape" v:layerMember="0" transform="translate(245.501,-648.665)">
			<title>动态连接线.15</title>
			<path d="M0 845.9 L-27.68 852.05" class="st2"/>
		</g>
		<g id="shape1-13" v:mID="1" v:groupContext="shape" transform="translate(195.591,-587.48)">
			<title>圆形</title>
			<v:userDefs>
				<v:ud v:nameU="visVersion" v:val="VT0(15):26"/>
			</v:userDefs>
			<path d="M0 829.49 A12.4016 12.4016 0 1 1 24.8 829.49 A12.4016 12.4016 0 0 1 0 829.49 Z" class="st3"/>
		</g>
		<g id="shape2-15" v:mID="2" v:groupContext="shape" transform="translate(229.075,-564.449)">
			<title>圆形.2</title>
			<v:userDefs>
				<v:ud v:nameU="visVersion" v:val="VT0(15):26"/>
			</v:userDefs>
			<path d="M0 834.27 A7.61811 7.61811 0 0 1 15.24 834.27 A7.61811 7.61811 0 1 1 0 834.27 Z" class="st4"/>
		</g>
		<g id="shape3-17" v:mID="3" v:groupContext="shape" transform="translate(174.331,-539.291)">
			<title>圆形.3</title>
			<v:userDefs>
				<v:ud v:nameU="visVersion" v:val="VT0(15):26"/>
			</v:userDefs>
			<path d="M0 831.26 A10.6299 10.6299 0 0 1 21.26 831.26 A10.6299 10.6299 0 1 1 0 831.26 Z" class="st5"/>
		</g>
		<g id="shape4-19" v:mID="4" v:groupContext="shape" transform="translate(232.618,-615.295)">
			<title>圆形.4</title>
			<v:userDefs>
				<v:ud v:nameU="visVersion" v:val="VT0(15):26"/>
			</v:userDefs>
			<path d="M0 837.81 A4.0748 4.0748 0 1 1 8.15 837.81 A4.0748 4.0748 0 0 1 -0 837.81 Z" class="st4"/>
		</g>
		<g id="shape5-21" v:mID="5" v:groupContext="shape" v:layerMember="0" transform="translate(218.252,-604.878)">
			<title>动态连接线</title>
			<path d="M0 839.92 L15.07 829.69" class="st6"/>
		</g>
		<g id="shape6-24" v:mID="6" v:groupContext="shape" v:layerMember="0" transform="translate(203.192,-588.619)">
			<title>动态连接线.6</title>
			<path d="M-0.39 841.89 L-13.78 870.93" class="st7"/>
		</g>
		<g id="shape7-27" v:mID="7" v:groupContext="shape" v:layerMember="0" transform="translate(216.898,-591.397)">
			<title>动态连接线.7</title>
			<path d="M0 842.04 L14.32 855.92" class="st7"/>
		</g>
		<g id="shape8-30" v:mID="8" v:groupContext="shape" transform="translate(245.501,-637.036)">
			<title>圆形.8</title>
			<v:userDefs>
				<v:ud v:nameU="visVersion" v:val="VT0(15):26"/>
			</v:userDefs>
			<path d="M0 834.27 A7.61811 7.61811 0 0 1 15.24 834.27 A7.61811 7.61811 0 1 1 0 834.27 Z" class="st4"/>
		</g>
		<g id="shape12-32" v:mID="12" v:groupContext="shape" transform="translate(209.764,-633.543)">
			<title>圆形.12</title>
			<v:userDefs>
				<v:ud v:nameU="visVersion" v:val="VT0(15):26"/>
			</v:userDefs>
			<path d="M0 837.81 A4.0748 4.0748 0 0 1 8.15 837.81 A4.0748 4.0748 0 1 1 0 837.81 Z" class="st8"/>
		</g>
		<g id="shape16-34" v:mID="16" v:groupContext="shape" transform="translate(150.591,-576.85)">
			<title>圆形.16</title>
			<v:userDefs>
				<v:ud v:nameU="visVersion" v:val="VT0(15):26"/>
			</v:userDefs>
			<path d="M0 831.26 A10.6299 10.6299 0 0 1 21.26 831.26 A10.6299 10.6299 0 1 1 0 831.26 Z" class="st4"/>
		</g>
		<g id="shape17-36" v:mID="17" v:groupContext="shape" transform="translate(261.496,-587.48)">
			<title>圆形.17</title>
			<v:userDefs>
				<v:ud v:nameU="visVersion" v:val="VT0(15):26"/>
			</v:userDefs>
			<path d="M0 831.26 A10.6299 10.6299 0 0 1 21.26 831.26 A10.6299 10.6299 0 1 1 0 831.26 Z" class="st5"/>
		</g>
		<g id="shape19-38" v:mID="19" v:groupContext="shape" v:layerMember="0" transform="translate(171.495,-586.367)">
			<title>动态连接线.19</title>
			<path d="M0 838.05 L24.51 831.55" class="st7"/>
		</g>
	</g>
</svg>
